<svg xmlns="http://www.w3.org/2000/svg" viewBox="0 0 320 180">
  <g transform="translate(76 4) rotate(-4 85 85)">
    <rect y="5" width="170" height="170" rx="16" fill="#08181d" opacity=".5"/>
    <rect width="170" height="170" rx="16" fill="#84786b" stroke="#d9cbb6" stroke-opacity=".5" stroke-width="2"/>
    <g fill="#ac9e8c">
      <rect x="88" y="8" width="34" height="34" rx="6"/><rect x="128" y="8" width="34" height="34" rx="6"/><rect x="128" y="48" width="34" height="34" rx="6"/>
    </g>
    <g fill="#eee4d5"><rect x="8" y="8" width="34" height="34" rx="6"/><rect x="48" y="8" width="34" height="34" rx="6"/><rect x="8" y="48" width="34" height="34" rx="6"/></g>
    <g fill="#efbc83"><rect x="48" y="48" width="34" height="34" rx="6"/><rect x="88" y="48" width="34" height="34" rx="6"/><rect x="8" y="88" width="34" height="34" rx="6"/><rect x="8" y="128" width="34" height="34" rx="6"/></g>
    <g fill="#e8916b"><rect x="48" y="88" width="34" height="34" rx="6"/><rect x="88" y="88" width="34" height="34" rx="6"/><rect x="48" y="128" width="34" height="34" rx="6"/></g>
    <g fill="#d8b569"><rect x="128" y="88" width="34" height="34" rx="6"/><rect x="88" y="128" width="34" height="34" rx="6"/></g>
    <rect x="128" y="128" width="34" height="34" rx="6" fill="#f0ce70" stroke="#fff1b5" stroke-width="2"/>
    <g font-family="system-ui,sans-serif" font-weight="750" font-size="18" text-anchor="middle" dominant-baseline="central" fill="#685a4c">
      <text x="25" y="25">2</text><text x="65" y="25">4</text><text x="25" y="65">4</text>
    </g>
    <g font-family="system-ui,sans-serif" font-weight="750" font-size="17" text-anchor="middle" dominant-baseline="central" fill="#fff9ef">
      <text x="65" y="65">8</text><text x="105" y="65">16</text><text x="25" y="105">8</text><text x="65" y="105">32</text><text x="105" y="105">64</text><text x="25" y="145">16</text><text x="65" y="145">64</text>
      <text x="145" y="105" font-size="13">128</text><text x="105" y="145" font-size="13">256</text><text x="145" y="145" font-size="10" fill="#665023">2048</text>
    </g>
  </g>
</svg>
